<svg width="141" height="37" viewBox="0 0 141 37" fill="none" xmlns="http://www.w3.org/2000/svg">
<path d="M22 4H9V6H22V4Z" fill="#D7A100"/>
<path d="M24.598 15.998C22.318 14.098 21 11.284 21 8.316V7H10V8.316C10 11.284 8.682 14.098 6.402 15.998L4 18L15 34V22.95C13.859 22.718 13 21.71 13 20.5C13 19.119 14.119 18 15.5 18C16.881 18 18 19.119 18 20.5C18 21.709 17.141 22.718 16 22.95V34L27 18L24.598 15.998Z" fill="#D7A100"/>
<path d="M22 4H9V6H22V4Z" fill="#D7A100"/>
<path d="M24.598 15.998C22.318 14.098 21 11.284 21 8.316V7H10V8.316C10 11.284 8.682 14.098 6.402 15.998L4 18L15 34V22.95C13.859 22.718 13 21.71 13 20.5C13 19.119 14.119 18 15.5 18C16.881 18 18 19.119 18 20.5C18 21.709 17.141 22.718 16 22.95V34L27 18L24.598 15.998Z" fill="#D7A100"/>
<path d="M41.411 5.1H46.817C48.109 5.1 49.248 5.34933 50.234 5.848C51.2313 6.33533 52.002 7.02667 52.546 7.922C53.1013 8.81733 53.379 9.86 53.379 11.05C53.379 12.24 53.1013 13.2827 52.546 14.178C52.002 15.0733 51.2313 15.7703 50.234 16.269C49.248 16.7563 48.109 17 46.817 17H41.411V5.1ZM46.681 14.739C47.871 14.739 48.8173 14.4103 49.52 13.753C50.234 13.0843 50.591 12.1833 50.591 11.05C50.591 9.91667 50.234 9.02133 49.52 8.364C48.8173 7.69533 47.871 7.361 46.681 7.361H44.165V14.739H46.681ZM55.4559 5.1H58.2099V17H55.4559V5.1ZM68.871 14.45H63.346L62.292 17H59.47L64.774 5.1H67.494L72.815 17H69.925L68.871 14.45ZM68.004 12.359L66.117 7.803L64.23 12.359H68.004Z" fill="#D7A100"/>
<path d="M78.8641 5.1H84.2701C85.5621 5.1 86.7011 5.34933 87.6871 5.848C88.6845 6.33533 89.4551 7.02667 89.9991 7.922C90.5545 8.81733 90.8321 9.86 90.8321 11.05C90.8321 12.24 90.5545 13.2827 89.9991 14.178C89.4551 15.0733 88.6845 15.7703 87.6871 16.269C86.7011 16.7563 85.5621 17 84.2701 17H78.8641V5.1ZM84.1341 14.739C85.3241 14.739 86.2705 14.4103 86.9731 13.753C87.6871 13.0843 88.0441 12.1833 88.0441 11.05C88.0441 9.91667 87.6871 9.02133 86.9731 8.364C86.2705 7.69533 85.3241 7.361 84.1341 7.361H81.6181V14.739H84.1341ZM101.681 12.461C101.681 12.495 101.664 12.733 101.63 13.175H94.711C94.8357 13.7417 95.1304 14.1893 95.595 14.518C96.0597 14.8467 96.6377 15.011 97.329 15.011C97.805 15.011 98.2244 14.943 98.587 14.807C98.961 14.6597 99.3067 14.433 99.624 14.127L101.035 15.657C100.174 16.643 98.9157 17.136 97.261 17.136C96.2297 17.136 95.3174 16.9377 94.524 16.541C93.7307 16.133 93.1187 15.572 92.688 14.858C92.2574 14.144 92.042 13.3337 92.042 12.427C92.042 11.5317 92.2517 10.727 92.671 10.013C93.1017 9.28767 93.6854 8.72667 94.422 8.33C95.17 7.922 96.003 7.718 96.921 7.718C97.8164 7.718 98.6267 7.91067 99.352 8.296C100.077 8.68133 100.644 9.23667 101.052 9.962C101.471 10.676 101.681 11.509 101.681 12.461ZM96.938 9.724C96.3374 9.724 95.833 9.894 95.425 10.234C95.017 10.574 94.7677 11.0387 94.677 11.628H99.182C99.0914 11.05 98.842 10.591 98.434 10.251C98.026 9.89967 97.5274 9.724 96.938 9.724ZM106.524 17.136C105.764 17.136 105.022 17.0453 104.297 16.864C103.571 16.6713 102.993 16.4333 102.563 16.15L103.447 14.246C103.855 14.5067 104.348 14.722 104.926 14.892C105.504 15.0507 106.07 15.13 106.626 15.13C107.748 15.13 108.309 14.8523 108.309 14.297C108.309 14.0363 108.156 13.8493 107.85 13.736C107.544 13.6227 107.073 13.5263 106.439 13.447C105.691 13.3337 105.073 13.2033 104.586 13.056C104.098 12.9087 103.673 12.648 103.311 12.274C102.959 11.9 102.784 11.3673 102.784 10.676C102.784 10.098 102.948 9.588 103.277 9.146C103.617 8.69267 104.104 8.34133 104.739 8.092C105.385 7.84267 106.144 7.718 107.017 7.718C107.663 7.718 108.303 7.79167 108.938 7.939C109.584 8.075 110.116 8.26767 110.536 8.517L109.652 10.404C108.847 9.95067 107.969 9.724 107.017 9.724C106.45 9.724 106.025 9.80333 105.742 9.962C105.458 10.1207 105.317 10.3247 105.317 10.574C105.317 10.8573 105.47 11.0557 105.776 11.169C106.082 11.2823 106.569 11.39 107.238 11.492C107.986 11.6167 108.598 11.7527 109.074 11.9C109.55 12.036 109.963 12.291 110.315 12.665C110.666 13.039 110.842 13.5603 110.842 14.229C110.842 14.7957 110.672 15.3 110.332 15.742C109.992 16.184 109.493 16.5297 108.836 16.779C108.19 17.017 107.419 17.136 106.524 17.136ZM112.478 7.854H115.13V17H112.478V7.854ZM113.804 6.579C113.317 6.579 112.92 6.43733 112.614 6.154C112.308 5.87067 112.155 5.51933 112.155 5.1C112.155 4.68067 112.308 4.32933 112.614 4.046C112.92 3.76267 113.317 3.621 113.804 3.621C114.291 3.621 114.688 3.757 114.994 4.029C115.3 4.301 115.453 4.641 115.453 5.049C115.453 5.491 115.3 5.85933 114.994 6.154C114.688 6.43733 114.291 6.579 113.804 6.579ZM127.026 7.854V15.47C127.026 17.1473 126.59 18.394 125.717 19.21C124.845 20.026 123.57 20.434 121.892 20.434C121.008 20.434 120.17 20.3263 119.376 20.111C118.583 19.8957 117.926 19.584 117.404 19.176L118.458 17.272C118.844 17.5893 119.331 17.8387 119.92 18.02C120.51 18.2127 121.099 18.309 121.688 18.309C122.606 18.309 123.281 18.0993 123.711 17.68C124.153 17.272 124.374 16.6487 124.374 15.81V15.419C123.683 16.1783 122.72 16.558 121.484 16.558C120.646 16.558 119.875 16.3767 119.172 16.014C118.481 15.64 117.931 15.1187 117.523 14.45C117.115 13.7813 116.911 13.0107 116.911 12.138C116.911 11.2653 117.115 10.4947 117.523 9.826C117.931 9.15733 118.481 8.64167 119.172 8.279C119.875 7.905 120.646 7.718 121.484 7.718C122.81 7.718 123.819 8.15433 124.51 9.027V7.854H127.026ZM122.011 14.382C122.714 14.382 123.286 14.178 123.728 13.77C124.182 13.3507 124.408 12.8067 124.408 12.138C124.408 11.4693 124.182 10.931 123.728 10.523C123.286 10.1037 122.714 9.894 122.011 9.894C121.309 9.894 120.731 10.1037 120.277 10.523C119.824 10.931 119.597 11.4693 119.597 12.138C119.597 12.8067 119.824 13.3507 120.277 13.77C120.731 14.178 121.309 14.382 122.011 14.382ZM135.054 7.718C136.187 7.718 137.099 8.058 137.791 8.738C138.493 9.418 138.845 10.4267 138.845 11.764V17H136.193V12.172C136.193 11.4467 136.034 10.9083 135.717 10.557C135.399 10.1943 134.94 10.013 134.34 10.013C133.671 10.013 133.138 10.2227 132.742 10.642C132.345 11.05 132.147 11.662 132.147 12.478V17H129.495V7.854H132.028V8.925C132.379 8.53967 132.815 8.245 133.337 8.041C133.858 7.82567 134.43 7.718 135.054 7.718Z" fill="#242424"/>
<path d="M49.132 33.232V35.884H48.304V34H40.972L40.96 35.884H40.132L40.144 33.232H40.564C41.116 33.2 41.5 32.764 41.716 31.924C41.932 31.076 42.064 29.876 42.112 28.324L42.208 25.6H47.872V33.232H49.132ZM42.904 28.408C42.864 29.688 42.764 30.744 42.604 31.576C42.452 32.4 42.192 32.952 41.824 33.232H46.996V26.368H42.976L42.904 28.408ZM50.7393 27.688H51.5913V32.704L55.8033 27.688H56.5593V34H55.7073V28.984L51.5073 34H50.7393V27.688ZM61.9442 30.712C62.3922 30.816 62.7362 30.996 62.9762 31.252C63.2242 31.508 63.3482 31.82 63.3482 32.188C63.3482 32.556 63.2202 32.884 62.9642 33.172C62.7162 33.46 62.3762 33.684 61.9442 33.844C61.5122 33.996 61.0362 34.072 60.5162 34.072C60.0602 34.072 59.6122 34.008 59.1722 33.88C58.7322 33.744 58.3482 33.548 58.0202 33.292L58.3082 32.656C58.5962 32.872 58.9322 33.04 59.3162 33.16C59.7002 33.28 60.0882 33.34 60.4802 33.34C61.0642 33.34 61.5402 33.232 61.9082 33.016C62.2842 32.792 62.4722 32.492 62.4722 32.116C62.4722 31.78 62.3202 31.52 62.0162 31.336C61.7122 31.144 61.2962 31.048 60.7682 31.048H59.6882V30.424H60.7202C61.1922 30.424 61.5722 30.336 61.8602 30.16C62.1482 29.976 62.2922 29.732 62.2922 29.428C62.2922 29.092 62.1282 28.828 61.8002 28.636C61.4802 28.444 61.0602 28.348 60.5402 28.348C59.8602 28.348 59.1882 28.52 58.5242 28.864L58.2842 28.204C59.0362 27.812 59.8162 27.616 60.6242 27.616C61.1042 27.616 61.5362 27.688 61.9202 27.832C62.3122 27.968 62.6162 28.164 62.8322 28.42C63.0562 28.676 63.1682 28.972 63.1682 29.308C63.1682 29.628 63.0562 29.912 62.8322 30.16C62.6162 30.408 62.3202 30.592 61.9442 30.712ZM67.4543 27.64C68.2783 27.64 68.9103 27.848 69.3503 28.264C69.7903 28.672 70.0103 29.28 70.0103 30.088V34H69.1943V33.016C69.0023 33.344 68.7183 33.6 68.3423 33.784C67.9743 33.968 67.5343 34.06 67.0223 34.06C66.3183 34.06 65.7583 33.892 65.3423 33.556C64.9263 33.22 64.7183 32.776 64.7183 32.224C64.7183 31.688 64.9103 31.256 65.2943 30.928C65.6863 30.6 66.3063 30.436 67.1543 30.436H69.1583V30.052C69.1583 29.508 69.0063 29.096 68.7023 28.816C68.3983 28.528 67.9543 28.384 67.3703 28.384C66.9703 28.384 66.5863 28.452 66.2183 28.588C65.8503 28.716 65.5343 28.896 65.2703 29.128L64.8863 28.492C65.2063 28.22 65.5903 28.012 66.0383 27.868C66.4863 27.716 66.9583 27.64 67.4543 27.64ZM67.1543 33.388C67.6343 33.388 68.0463 33.28 68.3903 33.064C68.7343 32.84 68.9903 32.52 69.1583 32.104V31.072H67.1783C66.0983 31.072 65.5583 31.448 65.5583 32.2C65.5583 32.568 65.6983 32.86 65.9783 33.076C66.2583 33.284 66.6503 33.388 67.1543 33.388ZM72.2784 27.688H73.1304V32.704L77.3424 27.688H78.0984V34H77.2464V28.984L73.0464 34H72.2784V27.688ZM75.1464 26.776C74.6024 26.776 74.1704 26.64 73.8504 26.368C73.5304 26.096 73.3664 25.712 73.3584 25.216H73.9704C73.9784 25.528 74.0904 25.78 74.3064 25.972C74.5224 26.156 74.8024 26.248 75.1464 26.248C75.4904 26.248 75.7704 26.156 75.9864 25.972C76.2104 25.78 76.3264 25.528 76.3344 25.216H76.9464C76.9384 25.712 76.7704 26.096 76.4424 26.368C76.1224 26.64 75.6904 26.776 75.1464 26.776ZM80.5401 27.688H81.3921V30.484H85.3641V27.688H86.2161V34H85.3641V31.216H81.3921V34H80.5401V27.688ZM91.2864 30.376H94.4304V31.12H91.2864V30.376ZM102.141 34.06C101.517 34.06 100.957 33.924 100.461 33.652C99.9731 33.38 99.5891 33 99.3091 32.512C99.0291 32.016 98.8891 31.46 98.8891 30.844C98.8891 30.228 99.0291 29.676 99.3091 29.188C99.5891 28.7 99.9731 28.32 100.461 28.048C100.957 27.776 101.517 27.64 102.141 27.64C102.685 27.64 103.169 27.748 103.593 27.964C104.025 28.172 104.365 28.48 104.613 28.888L103.977 29.32C103.769 29.008 103.505 28.776 103.185 28.624C102.865 28.464 102.517 28.384 102.141 28.384C101.685 28.384 101.273 28.488 100.905 28.696C100.545 28.896 100.261 29.184 100.053 29.56C99.8531 29.936 99.7531 30.364 99.7531 30.844C99.7531 31.332 99.8531 31.764 100.053 32.14C100.261 32.508 100.545 32.796 100.905 33.004C101.273 33.204 101.685 33.304 102.141 33.304C102.517 33.304 102.865 33.228 103.185 33.076C103.505 32.924 103.769 32.692 103.977 32.38L104.613 32.812C104.365 33.22 104.025 33.532 103.593 33.748C103.161 33.956 102.677 34.06 102.141 34.06ZM110.586 28.444H108.198V34H107.346V28.444H104.958V27.688H110.586V28.444ZM117.205 27.688L114.049 34.756C113.793 35.348 113.497 35.768 113.161 36.016C112.825 36.264 112.421 36.388 111.949 36.388C111.645 36.388 111.361 36.34 111.097 36.244C110.833 36.148 110.605 36.004 110.413 35.812L110.809 35.176C111.129 35.496 111.513 35.656 111.961 35.656C112.249 35.656 112.493 35.576 112.693 35.416C112.901 35.256 113.093 34.984 113.269 34.6L113.545 33.988L110.725 27.688H111.613L113.989 33.052L116.365 27.688H117.205ZM124.407 33.256V35.524H123.603V34H117.951V35.524H117.147V33.256H117.507C117.931 33.232 118.219 32.92 118.371 32.32C118.523 31.72 118.627 30.88 118.683 29.8L118.767 27.688H123.423V33.256H124.407ZM119.463 29.848C119.423 30.744 119.347 31.484 119.235 32.068C119.123 32.644 118.923 33.04 118.635 33.256H122.571V28.444H119.535L119.463 29.848ZM126.067 27.688H126.919V32.704L131.131 27.688H131.887V34H131.035V28.984L126.835 34H126.067V27.688ZM139.177 27.688V34H138.397V31.912H136.417H136.177L134.713 34H133.789L135.361 31.792C134.873 31.656 134.497 31.424 134.233 31.096C133.969 30.768 133.837 30.352 133.837 29.848C133.837 29.144 134.077 28.608 134.557 28.24C135.037 27.872 135.693 27.688 136.525 27.688H139.177ZM134.701 29.872C134.701 30.808 135.297 31.276 136.489 31.276H138.397V28.444H136.549C135.317 28.444 134.701 28.92 134.701 29.872Z" fill="#242424"/>
</svg>
